<svg width="28" height="28" viewBox="0 0 28 28" fill="none" xmlns="http://www.w3.org/2000/svg">
<path d="M0 14C0 15.7125 0.308055 17.3529 0.870789 18.8696L14 20.087L27.1292 18.8696C27.6919 17.3529 28 15.7125 28 14C28 12.2875 27.6919 10.6471 27.1292 9.13049L14 7.91309L0.870789 9.13049C0.308055 10.6471 0 12.2875 0 14Z" fill="#FFDA44"/>
<path d="M27.1293 9.13046C25.1512 3.7993 20.0196 0 14.0001 0C7.98055 0 2.84895 3.7993 0.87085 9.13046H27.1293Z" fill="#D80027"/>
<path d="M0.87085 18.8695C2.84895 24.2007 7.98055 28 14.0001 28C20.0196 28 25.1512 24.2007 27.1293 18.8695H0.87085Z" fill="#D80027"/>
</svg>
