<svg width="24" height="28" viewBox="0 0 24 28" fill="none" xmlns="http://www.w3.org/2000/svg">
<path fill-rule="evenodd" clip-rule="evenodd" d="M21.3333 3.33333H20V0.666664H17.3333V3.33333H6.66667V0.666664H4V3.33333H2.66667C1.2 3.33333 0 4.53333 0 6V24.6667C0 26.1333 1.2 27.3333 2.66667 27.3333H21.3333C22.8 27.3333 24 26.1333 24 24.6667V6C24 4.53333 22.8 3.33333 21.3333 3.33333ZM21.3333 24.6667H2.66667V11.3333H21.3333V24.6667ZM2.66667 6V8.66666H21.3333V6H2.66667ZM5.33333 14H18.6667V16.6667H5.33333V14ZM14.6667 19.3333H5.33333V22H14.6667V19.3333Z" fill="white"/>
</svg>
