<svg width="20" height="20" viewBox="0 0 20 20" fill="none" xmlns="http://www.w3.org/2000/svg">
<path d="M17.7778 0H2.22228C1.00006 0 6.10352e-05 1 6.10352e-05 2.22222V17.7778C6.10352e-05 19.0011 1.00006 20 2.22228 20H10.0001V12.2222H7.77784V9.47222H10.0001V7.19444C10.0001 4.79 11.3467 3.10111 14.1845 3.10111L16.1878 3.10333V5.99778H14.8578C13.7534 5.99778 13.3334 6.82667 13.3334 7.59556V9.47333H16.1867L15.5556 12.2222H13.3334V20H17.7778C19.0001 20 20.0001 19.0011 20.0001 17.7778V2.22222C20.0001 1 19.0001 0 17.7778 0Z" fill="#4ACAC1"/>
</svg>
