<svg width="34" height="34" viewBox="0 0 34 34" fill="none" xmlns="http://www.w3.org/2000/svg">
<path d="M33.1546 22.4514L33.1537 22.4491L25.0117 2.27903C25.0115 2.27862 25.0114 2.2782 25.0112 2.27778C24.65 1.36209 23.7983 0.759967 22.799 0.704198C21.7977 0.648319 20.8904 1.15349 20.4167 2.02277L20.4165 2.02302L12.6282 16.3453L12.6282 16.3453L12.6269 16.3478C12.2434 17.0691 12.1998 17.9052 12.5136 18.6572C12.8279 19.4107 13.4687 19.9777 14.2583 20.2255L14.2603 20.2262L30.5335 25.2105L30.5334 25.2108L30.5457 25.214C30.7426 25.2653 30.9496 25.3102 31.1785 25.3102C31.7506 25.3102 32.3241 25.0815 32.7378 24.6486L32.7379 24.6487L32.7437 24.6422C33.2858 24.0413 33.4511 23.2042 33.1546 22.4514ZM13.5979 16.8681L13.5985 16.8669L21.3866 2.54511C21.3867 2.54503 21.3867 2.54495 21.3868 2.54487C21.6364 2.08803 22.1159 1.81082 22.643 1.81082H22.6432H22.6435H22.6437H22.6439H22.6441H22.6443H22.6446H22.6448H22.645H22.6452H22.6454H22.6457H22.6459H22.6461H22.6463H22.6465H22.6468H22.647H22.6472H22.6474H22.6476H22.6478H22.6481H22.6483H22.6485H22.6487H22.6489H22.6491H22.6494H22.6496H22.6498H22.65H22.6502H22.6504H22.6506H22.6508H22.6511H22.6513H22.6515H22.6517H22.6519H22.6521H22.6523H22.6525H22.6528H22.653H22.6532H22.6534H22.6536H22.6538H22.654H22.6542H22.6544H22.6546H22.6549H22.6551H22.6553H22.6555H22.6557H22.6559H22.6561H22.6563H22.6565H22.6567H22.6569H22.6571H22.6573H22.6575H22.6577H22.658H22.6582H22.6584H22.6586H22.6588H22.659H22.6592H22.6594H22.6596H22.6598H22.66H22.6602H22.6604H22.6606H22.6608H22.661H22.6612H22.6614H22.6616H22.6618H22.662H22.6622H22.6624H22.6626H22.6628H22.663H22.6632H22.6634H22.6636H22.6638H22.664H22.6642H22.6644H22.6646H22.6648H22.665H22.6652H22.6654H22.6656H22.6658H22.666H22.6662H22.6664H22.6666H22.6668H22.667H22.6672H22.6674H22.6676H22.6678H22.668H22.6682H22.6684H22.6686H22.6687H22.6689H22.6691H22.6693H22.6695H22.6697H22.6699H22.6701H22.6703H22.6705H22.6707H22.6709H22.6711H22.6713H22.6715H22.6717H22.6719H22.672H22.6722H22.6724H22.6726H22.6728H22.673H22.6732H22.6734H22.6736H22.6738H22.674H22.6742H22.6744H22.6745H22.6747H22.6749H22.6751H22.6753H22.6755H22.6757H22.6759H22.6761H22.6763H22.6765H22.6766H22.6768H22.677H22.6772H22.6774H22.6776H22.6778H22.678H22.6782H22.6784H22.6785H22.6787H22.6789H22.6791H22.6793H22.6795H22.6797H22.6799H22.6801H22.6802H22.6804H22.6806H22.6808H22.681H22.6812H22.6814H22.6816H22.6817H22.6819H22.6821H22.6823H22.6825H22.6827H22.6829H22.6831H22.6832H22.6834H22.6836H22.6838H22.684H22.6842H22.6844H22.6846H22.6847H22.6849H22.6851H22.6853H22.6855H22.6857H22.6859H22.6861H22.6862H22.6864H22.6866H22.6868H22.687H22.6872H22.6874H22.6875H22.6877H22.6879H22.6881H22.6883H22.6885H22.6887H22.6888H22.689H22.6892H22.6894H22.6896H22.6898H22.69H22.6901H22.6903H22.6905H22.6907H22.6909H22.6911H22.6913H22.6914H22.6916H22.6918H22.692H22.6922H22.6924H22.6926H22.6927H22.6929H22.6931H22.6933H22.6935H22.6937H22.6939H22.694H22.6942H22.6944H22.6946H22.6948H22.695H22.6952H22.6953H22.6955H22.6957H22.6959H22.6961H22.6963H22.6965H22.6966H22.6968H22.697H22.6972H22.6974H22.6976H22.6978H22.6979H22.6981H22.6983H22.6985H22.6987H22.6989H22.6991H22.6992H22.6994H22.6996H22.6998H22.7H22.7002H22.7004H22.7005H22.7007H22.7009H22.7011H22.7013H22.7015H22.7017H22.7018H22.702H22.7022H22.7024H22.7026H22.7028H22.703H22.7032H22.7033H22.7035H22.7037H22.7039H22.7041H22.7043H22.7045H22.7047H22.7048H22.705H22.7052H22.7054H22.7056H22.7058H22.706H22.7062H22.7063H22.7065H22.7067H22.7069H22.7071H22.7073H22.7075H22.7077H22.7079H22.708H22.7082H22.7084H22.7086H22.7088H22.709H22.7092H22.7094H22.7096H22.7097H22.7099H22.7101H22.7103H22.7105H22.7107H22.7109H22.7111H22.7113H22.7115H22.7116H22.7118H22.712H22.7122H22.7124H22.7126H22.7128H22.713H22.7132H22.7134H22.7136H22.7137H22.7139H22.7141H22.7143H22.7145H22.7147H22.7149H22.7151H22.7153H22.7155H22.7157H22.7159H22.7161H22.7163H22.7165H22.7166H22.7168H22.717H22.7172H22.7174H22.7176H22.7178H22.718H22.7182H22.7184H22.7186H22.7188H22.719H22.7192H22.7194H22.7196H22.7198H22.72H22.7202H22.7204H22.7206H22.7207H22.7209H22.7211H22.7213H22.7215H22.7217H22.7219H22.7221H22.7223H22.7225H22.7227H22.7229H22.7231H22.7233H22.7235H22.7237H22.7239H22.7241H22.7243H22.7245H22.7247H22.7249H22.7251H22.7253H22.7255H22.7257H22.7259H22.7261H22.7263H22.7265H22.7267H22.7269H22.7271H22.7273H22.7276H22.7278H22.728H22.7282H22.7284H22.7286H22.7288H22.729H22.7292H22.7294H22.7296H22.7298H22.73H22.7302H22.7304H22.7306H22.7308H22.731H22.7312H22.7315H22.7317H22.7319H22.7321H22.7323H22.7325H22.7327H22.7329H22.7331H22.7333H22.7335H22.7337H22.734H22.7342H22.7344H22.7346H22.7348H22.735H22.7352H22.7354H22.7356H22.7358C23.3009 1.8443 23.7651 2.17969 23.9734 2.68739C23.9735 2.68765 23.9736 2.68792 23.9737 2.68819L32.1034 22.859L32.1032 22.8591L32.1073 22.8683C32.2579 23.2085 32.187 23.5994 31.9114 23.8877C31.6355 24.1764 31.234 24.2824 30.8477 24.1666C30.8475 24.1665 30.8472 24.1664 30.847 24.1664L14.5764 19.1828C14.5762 19.1828 14.576 19.1827 14.5757 19.1826C14.1016 19.0351 13.7149 18.6878 13.5221 18.238C13.3319 17.7943 13.362 17.2974 13.5979 16.8681Z" fill="#6A49EF" stroke="#6A49EF" stroke-width="0.6"/>
<path d="M16.4888 5.99841L16.4893 5.99855C19.1769 6.83545 21.696 8.66906 23.5905 11.1361C25.4854 13.6035 26.54 16.4491 26.54 19.1355V20.9412C26.54 23.605 25.5064 25.8565 23.59 27.2212L23.5898 27.2213C22.3694 28.0893 20.851 28.5508 19.2242 28.5508C18.2285 28.5508 17.1977 28.3845 16.1582 28.0546C16.1579 28.0545 16.1576 28.0544 16.1574 28.0543L8.05443 25.5319L16.4888 5.99841ZM16.4888 5.99841L8.46171 3.513C8.46139 3.5129 8.46106 3.51279 8.46074 3.51269C7.89901 3.3351 7.32218 3.44086 6.85784 3.76269L6.85781 3.76263M16.4888 5.99841L6.85781 3.76263M6.85781 3.76263L6.85271 3.76632M6.85781 3.76263L6.85271 3.76632M6.85271 3.76632C6.38613 4.10441 6.1082 4.62575 6.1082 5.19659M6.85271 3.76632L6.1082 5.19659M6.1082 5.19659V22.9325M6.1082 5.19659V22.9325M6.1082 22.9325C6.1082 24.1317 6.89422 25.1724 8.054 25.5317L6.1082 22.9325ZM8.11748 4.60495L16.1586 7.10316C18.6261 7.87432 20.957 9.55367 22.709 11.8472L22.7096 11.848C24.4747 14.1425 25.4334 16.7512 25.4334 19.1849V20.8917C25.4334 23.2364 24.5299 25.141 22.9379 26.2872C21.2586 27.4698 18.9801 27.7332 16.4763 26.9624C16.4761 26.9623 16.4759 26.9623 16.4757 26.9622L8.37274 24.4397C8.37258 24.4397 8.37241 24.4396 8.37224 24.4396C7.66803 24.2172 7.2021 23.5989 7.2021 22.883V5.24606C7.2021 5.03531 7.30599 4.82873 7.48186 4.69856C7.67111 4.56782 7.90135 4.53461 8.11362 4.60372L8.11748 4.60495Z" fill="#FF2626" stroke="#FF2626" stroke-width="0.6"/>
<path d="M1.44964 9.46435L1.4496 9.46429L1.44451 9.46798C0.976772 9.80691 0.7 10.3288 0.7 10.9106V28.597C0.7 29.7964 1.48621 30.8372 2.64622 31.1964L9.11339 33.2111C9.11399 33.2113 9.11459 33.2115 9.1152 33.2117C9.29501 33.27 9.47768 33.3001 9.66216 33.3001C10.0431 33.3001 10.4064 33.1806 10.7203 32.9616L10.7203 32.9617L10.7247 32.9585C11.1912 32.6204 11.4692 32.0991 11.4692 31.5283V13.8419C11.4692 12.6335 10.6989 11.5903 9.53561 11.2301L3.0535 9.21466C3.05324 9.21457 3.05297 9.21449 3.0527 9.2144C2.49091 9.03674 1.91402 9.14248 1.44964 9.46435ZM2.69511 10.2647L2.70203 10.2672L2.70906 10.2694L9.17931 12.2851C9.17948 12.2852 9.17965 12.2852 9.17982 12.2853C9.88292 12.5074 10.3499 13.1372 10.3499 13.8419V31.5283H10.3497L10.3502 31.5405C10.3586 31.7459 10.2689 31.9336 10.0857 32.0614C9.89756 32.1927 9.67527 32.2302 9.44208 32.1678L2.9772 30.1538C2.97708 30.1537 2.97695 30.1537 2.97683 30.1536C2.27365 29.9316 1.80656 29.3018 1.80656 28.597V10.9106C1.80656 10.6896 1.90877 10.4944 2.0863 10.3631C2.21275 10.2758 2.35443 10.2335 2.49435 10.2335C2.57092 10.2335 2.63542 10.2429 2.69511 10.2647Z" fill="#48FEA7" stroke="#48FEA7" stroke-width="0.6"/>
</svg>
