<svg width="52" height="52" viewBox="0 0 52 52" fill="none" xmlns="http://www.w3.org/2000/svg">
<path d="M22.5023 47.4994L23.3631 47.6988C23.4202 47.7127 23.4773 47.7359 23.5249 47.7683L27.3251 50.4249C27.463 50.5223 27.5391 50.6892 27.5106 50.8561L27.4107 51.482C27.3441 51.8992 27.8578 52.1635 28.1765 51.876L28.5807 51.5098C28.6236 51.4727 28.6568 51.4263 28.6806 51.3753L28.7948 51.1389C29.1467 50.4156 29.6604 49.7758 30.3025 49.2751C30.6069 49.0387 30.859 48.7466 31.0445 48.4128L31.6628 47.3233C32.0148 46.702 32.4571 46.1271 32.9755 45.6264L33.3655 45.2462C33.4083 45.2045 33.4416 45.1581 33.4654 45.1025L34.1456 43.5355C34.1693 43.4798 34.1836 43.4195 34.1836 43.3593V42.3949C34.1836 41.7551 34.4785 41.1478 34.9827 40.7398L36.5427 39.4834C37.0564 39.0661 37.6652 38.774 38.3168 38.6211L41.7841 37.8097C42.4024 37.666 42.9684 37.3646 43.4297 36.9381C43.7769 36.6182 44.0576 36.2334 44.2526 35.8115L46.5974 30.7163C46.6164 30.6792 46.6259 30.6375 46.6354 30.5911L46.9636 28.2173C46.9684 28.1988 46.9684 28.1756 46.9684 28.1571V25.3012C46.9684 24.6892 47.2775 24.1143 47.796 23.7712C47.972 23.6507 48.1289 23.5069 48.2526 23.3354L50.9731 19.7099C51.7389 18.6899 52.1004 17.4288 51.9815 16.1678L51.7817 14.0258C51.7627 13.845 51.639 13.692 51.4583 13.641L49.5558 13.08C49.5177 13.0708 49.4844 13.0522 49.4511 13.0337L45.9268 10.9288C45.4939 10.6692 44.9945 10.5347 44.4856 10.5347H42.9208C42.8875 10.5347 42.8542 10.5301 42.8209 10.5255L40.7805 10.085C40.1432 9.94595 39.5772 9.59359 39.1824 9.08824C38.7353 8.51335 38.1123 8.09609 37.4036 7.88746L32.6664 6.50586C32.5855 6.48268 32.5189 6.44095 32.4618 6.38068L32.3096 6.21841C31.9339 5.8197 31.7151 5.30508 31.6913 4.76264C31.6723 4.26656 31.4868 3.79366 31.1634 3.41349L30.9541 3.16314C30.6117 2.75515 30.3786 2.26371 30.2787 1.74445L30.2217 1.43846C30.1836 1.22519 29.9934 1.0722 29.7698 1.0722C29.6224 1.0722 29.4844 1.14174 29.3988 1.25765L28.4951 2.46307C28.0005 3.12605 27.1681 3.46449 26.3406 3.34395L25.337 3.20023C24.7805 3.12141 24.2145 3.24659 23.7532 3.54794L23.3013 3.84003C23.2633 3.86321 23.2205 3.88175 23.1777 3.89566L20.029 4.81827C19.9006 4.85536 19.7627 4.83682 19.6485 4.76727L18.6687 4.14602C18.5403 4.06257 18.4595 3.92348 18.4595 3.77048V0.942381C18.4595 0.77084 18.4119 0.603936 18.3215 0.460213C18.0552 0.0290431 17.4844 -0.123953 17.0326 0.121768L15.4345 0.988743C15.4012 1.00729 15.3631 1.0212 15.3299 1.03047L14.3025 1.29473C14.1598 1.33182 14.0171 1.33646 13.8744 1.30401C13.2086 1.16956 12.6188 1.74909 12.771 2.39816L13.0088 3.42277C13.0469 3.5804 12.9898 3.7473 12.8661 3.85394L10.8733 5.56471C10.7448 5.67598 10.5641 5.70843 10.4071 5.64816L9.34175 5.24944C9.05161 5.14281 8.82331 4.92491 8.70441 4.64673C8.49513 4.16456 7.96719 3.88639 7.43449 3.99302L6.18836 4.23411C5.6509 4.34074 5.26565 4.79973 5.26565 5.33289V5.36535C5.26565 5.57398 5.20857 5.77334 5.09442 5.95415C4.86612 6.32041 4.86612 6.7794 5.10393 7.14103L5.5748 7.86428C5.63663 7.96164 5.66041 8.08218 5.63663 8.19345L4.99454 11.1931C4.82807 11.9673 4.19549 12.5701 3.39169 12.7091L2.68301 12.8297C2.02189 12.9456 1.45114 13.3397 1.12296 13.9099L0.28586 15.3703C-0.0613458 15.9777 -0.0946395 16.7102 0.205004 17.3454L0.76624 18.5369C1.09918 19.237 1.78408 19.7191 2.57361 19.7933L3.33937 19.8675C3.7484 19.9092 4.07659 20.2152 4.13366 20.6093C4.19549 21.0265 4.55697 21.3418 4.98978 21.3557L5.83164 21.3789C6.35483 21.3928 6.87801 21.2908 7.35839 21.0822L9.1182 20.3079C9.98859 19.9278 11.0017 20.3497 11.3203 21.2259L11.62 22.0512C11.7912 22.524 12.167 22.9042 12.6473 23.0943L17.2752 24.9117C17.4131 24.9673 17.5177 25.0832 17.551 25.227L18.1456 27.7352C18.2502 28.171 18.6307 28.4909 19.0873 28.5326L19.6771 28.5836C20.224 28.63 20.6426 29.0797 20.6426 29.6128C20.6426 29.9003 20.7662 30.1785 20.985 30.3732L21.1563 30.5262C21.3941 30.7395 21.5177 31.0454 21.4939 31.3607L21.2086 35.232C21.1563 35.9367 21.6509 36.5672 22.3596 36.7109L23.8435 37.0076C24.0195 37.0401 24.1574 37.1745 24.1955 37.3414L24.4666 38.4495C24.5094 38.6211 24.6473 38.7509 24.8233 38.7833L25.5653 38.9224C25.7793 38.9641 25.9363 39.1449 25.9363 39.3628V40.8279C25.9363 40.9763 26.0124 41.1107 26.136 41.1942L26.7496 41.6068C26.8637 41.681 26.9351 41.8061 26.9446 41.9406L27.0397 43.0857C27.054 43.2712 26.9494 43.4474 26.7734 43.5262L25.7555 43.9852C24.7662 44.4303 23.8768 45.0608 23.1396 45.8397L22.2597 46.7669C22.0314 47.0126 22.1598 47.4206 22.5023 47.4994Z" fill="#DF4545"/>
<path d="M26.8304 28.4617C26.8304 30.8262 25.513 32.0548 22.8019 32.2171L20.3715 32.3608C17.513 32.5324 16.0147 31.4058 15.8958 28.9161L15.7246 25.1839L20.3382 25.0773L20.4238 28.3041C20.438 28.7863 20.7044 28.9995 21.2609 28.9764L21.6842 28.9578C22.2359 28.9346 22.488 28.6982 22.4785 28.2207L22.3881 23.3665C22.3786 22.838 22.1408 22.5135 21.5415 22.5227C21.0088 22.5274 20.6426 22.8287 20.1527 23.399L15.7817 23.4639L15.2109 10.9692L26.5118 11.4839L26.5165 15.3783L20.0385 15.2114L20.0956 19.8754C20.9993 19.1476 21.8031 18.6932 23.3108 18.7071H23.3774C25.513 18.7257 26.84 20.0099 26.84 22.0545L26.8304 28.4617Z" fill="white"/>
<path d="M34.3546 31.5265L31.9099 31.6702C29.3748 31.8232 28.1001 30.7568 28.1144 28.4063L28.1952 15.3924C28.2095 12.7173 29.6126 11.4423 32.3665 11.5675L35.0157 11.6927C37.6174 11.8132 38.8159 13.1392 38.6923 15.6613L38.0882 27.989C37.9836 30.2283 36.7612 31.3827 34.3546 31.5265ZM33.8742 15.2486L33.3272 15.2347C32.8088 15.2208 32.5567 15.4526 32.5472 15.958L32.2618 27.8407C32.2523 28.295 32.4759 28.499 32.9705 28.4758L33.4889 28.4526C33.9741 28.4295 34.2119 28.2116 34.2262 27.7618L34.6067 16.0044C34.6209 15.5036 34.3879 15.2626 33.8742 15.2486Z" fill="white"/>
<path d="M44.7332 30.9098L42.5548 31.0396C40.2956 31.174 39.216 30.1634 39.3396 27.9426L40.0055 15.6983C40.1434 13.1947 41.4324 11.994 43.8628 12.1052L46.1981 12.2165C48.5001 12.3231 49.5037 13.5656 49.2897 15.9394L48.2195 27.5717C48.0198 29.6858 46.883 30.78 44.7332 30.9098ZM45.0281 15.5499L44.5429 15.536C44.0863 15.5221 43.8533 15.74 43.82 16.2129L43.0352 27.4048C43.0067 27.836 43.1969 28.026 43.6345 28.0075L44.0959 27.989C44.5287 27.9704 44.7475 27.7618 44.7808 27.3352L45.6369 16.2547C45.6797 15.791 45.4847 15.5639 45.0281 15.5499Z" fill="white"/>
</svg>
