<svg width="28" height="20" viewBox="0 0 28 20" fill="none" xmlns="http://www.w3.org/2000/svg">
<path fill-rule="evenodd" clip-rule="evenodd" d="M10 10C12.5734 10 14.6667 7.90667 14.6667 5.33334C14.6667 2.76001 12.5734 0.666672 10 0.666672C7.42669 0.666672 5.33335 2.76001 5.33335 5.33334C5.33335 7.90667 7.42669 10 10 10ZM0.666687 17C0.666687 13.8933 6.88002 12.3333 10 12.3333C13.12 12.3333 19.3334 13.8933 19.3334 17V19.3333H0.666687V17ZM9.99997 15C7.6133 15 4.90663 15.8933 3.78663 16.6667H16.2133C15.0933 15.8933 12.3866 15 9.99997 15ZM12 5.33334C12 4.22667 11.1067 3.33334 10 3.33334C8.89335 3.33334 8.00002 4.22667 8.00002 5.33334C8.00002 6.44 8.89335 7.33334 10 7.33334C11.1067 7.33334 12 6.44 12 5.33334ZM19.3867 12.4134C20.9334 13.5334 22 15.0267 22 17V19.3334H27.3334V17C27.3334 14.3067 22.6667 12.7734 19.3867 12.4134ZM22.6667 5.33334C22.6667 7.90667 20.5734 10 18 10C17.28 10 16.6134 9.82667 16 9.53334C16.84 8.34667 17.3334 6.89334 17.3334 5.33334C17.3334 3.77334 16.84 2.32001 16 1.13334C16.6134 0.840005 17.28 0.666672 18 0.666672C20.5734 0.666672 22.6667 2.76001 22.6667 5.33334Z" fill="#4ACAC1"/>
</svg>
