<svg width="28" height="28" viewBox="0 0 28 28" fill="none" xmlns="http://www.w3.org/2000/svg">
<path d="M14 28C21.732 28 28 21.732 28 14C28 6.26801 21.732 0 14 0C6.26801 0 0 6.26801 0 14C0 21.732 6.26801 28 14 28Z" fill="#6DA544"/>
<path d="M14 5.47827L25.5652 14L14 22.5217L2.43481 14L14 5.47827Z" fill="#FFDA44"/>
<path d="M14.0002 18.8696C16.6895 18.8696 18.8697 16.6894 18.8697 14C18.8697 11.3107 16.6895 9.13049 14.0002 9.13049C11.3108 9.13049 9.13062 11.3107 9.13062 14C9.13062 16.6894 11.3108 18.8696 14.0002 18.8696Z" fill="#F0F0F0"/>
<path d="M11.5653 13.6957C10.7185 13.6957 9.90131 13.8245 9.13208 14.0635C9.16615 16.7235 11.332 18.8696 14.0001 18.8696C15.6499 18.8696 17.107 18.0484 17.9878 16.7932C16.4808 14.9067 14.162 13.6957 11.5653 13.6957Z" fill="#0052B4"/>
<path d="M18.7795 14.933C18.8381 14.6309 18.8698 14.3192 18.8698 14C18.8698 11.3106 16.6896 9.13049 14.0002 9.13049C11.9935 9.13049 10.2709 10.3446 9.52539 12.0781C10.1844 11.9415 10.8667 11.8696 11.5655 11.8696C14.3938 11.8696 16.9524 13.0452 18.7795 14.933Z" fill="#0052B4"/>
</svg>
