<svg width="17" height="20" viewBox="0 0 17 20" fill="none" xmlns="http://www.w3.org/2000/svg">
<path d="M8.92951 0.0168759C9.99657 0 11.0575 0.0100005 12.1172 0C12.1814 1.27569 12.6303 2.57514 13.5438 3.47706C14.4556 4.40148 15.7452 4.82463 17 4.96776V8.32357C15.8241 8.28419 14.6427 8.03418 13.5756 7.51665C13.1109 7.30164 12.678 7.02475 12.2542 6.74161C12.2487 9.17674 12.264 11.6087 12.2389 14.0339C12.1753 15.1989 11.7992 16.3584 11.1364 17.3184C10.0699 18.9166 8.21896 19.9586 6.31783 19.9911C5.15171 20.0592 3.98681 19.7342 2.99314 19.1354C1.34639 18.1428 0.187607 16.3259 0.0188346 14.3758C-0.00242406 13.9628 -0.00568861 13.549 0.00905069 13.1357C0.155809 11.55 0.923233 10.033 2.11442 9.00111C3.4646 7.79917 5.35595 7.22664 7.12683 7.5654C7.14334 8.79984 7.09503 10.033 7.09503 11.2675C6.28603 11 5.34066 11.075 4.63377 11.5769C4.1166 11.9251 3.72577 12.4375 3.52147 13.0351C3.3527 13.4576 3.401 13.927 3.41079 14.3758C3.60463 15.7433 4.89121 16.8928 6.26463 16.7684C7.17514 16.7584 8.04774 16.2184 8.52226 15.4277C8.67574 15.1508 8.84757 14.8677 8.85675 14.542C8.93685 13.0513 8.90505 11.5669 8.91484 10.0762C8.92156 6.71661 8.90505 3.36643 8.93012 0.0175009L8.92951 0.0168759Z" fill="#4ACAC1"/>
</svg>
