<svg width="20" height="20" viewBox="0 0 20 20" fill="none" xmlns="http://www.w3.org/2000/svg">
<path d="M17.0012 2.90755C16.0843 1.98215 14.9924 1.24849 13.7891 0.749316C12.5858 0.250143 11.2952 -0.00455533 9.99247 6.1663e-05C4.53374 6.1663e-05 0.0849997 4.44755 0.0799998 9.90753C0.0799998 11.6563 0.537498 13.3575 1.40125 14.8638L0 20L5.25498 18.6225C6.70873 19.4136 8.33739 19.8283 9.99247 19.8288H9.99747C15.4575 19.8288 19.9049 15.3813 19.9099 9.91628C19.9112 8.61384 19.6547 7.32402 19.1553 6.12114C18.6558 4.91826 17.9233 3.82609 16.9999 2.90755H17.0012ZM9.99247 18.1513C8.51622 18.1518 7.06711 17.7545 5.79748 17.0013L5.49748 16.8213L2.37999 17.6388L3.21249 14.5975L3.01749 14.2838C2.19225 12.9717 1.7558 11.4526 1.75874 9.90253C1.75874 5.37005 5.45498 1.67256 9.99747 1.67256C11.0796 1.67062 12.1515 1.8829 13.1512 2.29717C14.151 2.71144 15.0588 3.3195 15.8225 4.0863C16.5887 4.85011 17.1962 5.75808 17.6099 6.75783C18.0235 7.75758 18.2351 8.82934 18.2324 9.91128C18.2274 14.46 14.5312 18.1513 9.99247 18.1513ZM14.5112 11.9838C14.265 11.86 13.0487 11.2613 12.82 11.1763C12.5925 11.095 12.4262 11.0525 12.2637 11.3C12.0975 11.5463 11.6225 12.1075 11.48 12.2688C11.3375 12.435 11.19 12.4538 10.9425 12.3313C10.6962 12.2063 9.89747 11.9463 8.95247 11.1C8.21498 10.4438 7.72123 9.63128 7.57373 9.38503C7.43123 9.13753 7.55998 9.00503 7.68373 8.88128C7.79248 8.77129 7.92998 8.59128 8.05373 8.44879C8.17873 8.30629 8.21997 8.20129 8.30122 8.03629C8.38247 7.86879 8.34372 7.72629 8.28247 7.60254C8.21997 7.47879 7.72623 6.25754 7.51748 5.76504C7.31748 5.2788 7.11373 5.34629 6.96123 5.34004C6.81873 5.3313 6.65248 5.3313 6.48623 5.3313C6.36069 5.33442 6.23714 5.36345 6.12335 5.41658C6.00956 5.46972 5.90798 5.54579 5.82498 5.64004C5.59748 5.88754 4.96124 6.48629 4.96124 7.70754C4.96124 8.92878 5.84873 10.1025 5.97373 10.2688C6.09623 10.435 7.71623 12.9338 10.2025 14.0088C10.79 14.265 11.2525 14.4163 11.6137 14.5313C12.2075 14.7213 12.7437 14.6925 13.1712 14.6313C13.6462 14.5588 14.635 14.0313 14.8437 13.4525C15.0487 12.8725 15.0487 12.3775 14.9862 12.2738C14.925 12.1688 14.7587 12.1075 14.5112 11.9838Z" fill="#96638C"/>
</svg>
